{"title":"Battlestar Galactica: Blood and Chrome Episode 1 And 2 1080P","uid":7811496,"size":890104165,"categoryP":"video","categoryS":"hd___tv_shows","magnet":"?xt=urn:btih:c17442a2e7b4b4f9ae116dbc1cc35f55e95ac4c8&amp;dn=Battlestar+Galactica%3A+Blood+and+Chrome+Episode+1+And+2+1080P&amp;tr=udp%3A%2F%2Ftracker.openbittorrent.com%3A80&amp;tr=udp%3A%2F%2Fopen.demonii.com%3A1337&amp;tr=udp%3A%2F%2Ftracker.coppersurfer.tk%3A6969&amp;tr=udp%3A%2F%2Fexodus.desync.com%3A6969","seeders":1,"leechers":0,"uploader":"jmanwf","files":2,"time":1352546310,"description":"Format                                   : MPEG-4\nFormat profile                           : Base Media / Version 2\nCodec ID                                 : mp42\nFile size                                : 469 MiB\nDuration                                 : 12mn 1s\nOverall bit rate mode                    : Variable\nOverall bit rate                         : 5 459 Kbps\nEncoded date                             : UTC 2012-11-08 00:26:34\nTagged date                              : UTC 2012-11-08 00:26:34\ngsst                                     : 0\ngstd                                     : 721235\ngssd                                     : BADC235E1HH1352537381709465\ngshh                                     :\n\nVideo\nID                                       : 1\nFormat                                   : AVC\nFormat/Info                              : Advanced Video Codec\nFormat profile                           : &lt;a class=&quot;__cf_email__&quot; href=&quot;/cdn-cgi/l/email-protection&quot; data-cfemail=&quot;3f775658577f730b110f&quot;&gt;[email&amp;#160;protected]&lt;/a&gt;&lt;script cf-hash='f9e31' type=&quot;text/javascript&quot;&gt;\n/* &lt;![CDATA[ */!function(){try{var t=&quot;currentScript&quot;in document?document.currentScript:function(){for(var t=document.getElementsByTagName(&quot;script&quot;),e=t.length;e--;)if(t[e].getAttribute(&quot;cf-hash&quot;))return t[e]}();if(t&amp;&amp;t.previousSibling){var e,r,n,i,c=t.previousSibling,a=c.getAttribute(&quot;data-cfemail&quot;);if(a){for(e=&quot;&quot;,r=parseInt(a.substr(0,2),16),n=2;a.length-n;n+=2)i=parseInt(a.substr(n,2),16)^r,e+=String.fromCharCode(i);e=document.createTextNode(e),c.parentNode.replaceChild(e,c)}}}catch(u){}}();/* ]]&gt; */&lt;/script&gt;\nFormat settings, CABAC                   : Yes\nFormat settings, ReFrames                : 1 frame\nCodec ID                                 : avc1\nCodec ID/Info                            : Advanced Video Coding\nDuration                                 : 12mn 1s\nBit rate                                 : 5 264 Kbps\nMaximum bit rate                         : 11.1 Mbps\nWidth                                    : 1 920 pixels\nHeight                                   : 1 080 pixels\nDisplay aspect ratio                     : 16:9\nFrame rate mode                          : Constant\nFrame rate                               : 23.976 fps\nColor space                              : YUV\nChroma subsampling                       : 4:2:0\nBit depth                                : 8 bits\nScan type                                : Progressive\nBits/(Pixel*Frame)                       : 0.106\nStream size                              : 453 MiB (96%)\nTagged date                              : UTC 2012-11-08 00:26:35\n\nAudio\nID                                       : 2\nFormat                                   : AAC\nFormat/Info                              : Advanced Audio Codec\nFormat profile                           : LC\nCodec ID                                 : 40\nDuration                                 : 12mn 1s\nBit rate mode                            : Variable\nBit rate                                 : 192 Kbps\nMaximum bit rate                         : 201 Kbps\nChannel(s)                               : 2 channels\nChannel positions                        : Front: L R\nSampling rate                            : 44.1 KHz\nCompression mode                         : Lossy\nStream size                              : 16.5 MiB (4%)\n\nThis is getting a web-only premiere on The Machinima Interactive Film Festival YouTube channel, from November 9th. The film will be broken up into 10, seven- to 12-minute episodes online until February and will remain on Machinima until April.\n\n","torrent":{"xt":"urn:btih:c17442a2e7b4b4f9ae116dbc1cc35f55e95ac4c8","amp;dn":"Battlestar+Galactica%3A+Blood+and+Chrome+Episode+1+And+2+1080P","amp;tr":["udp%3A%2F%2Ftracker.openbittorrent.com%3A80","udp%3A%2F%2Fopen.demonii.com%3A1337","udp%3A%2F%2Ftracker.coppersurfer.tk%3A6969","udp%3A%2F%2Fexodus.desync.com%3A6969"],"infoHash":"c17442a2e7b4b4f9ae116dbc1cc35f55e95ac4c8","infoHashBuffer":{"type":"Buffer","data":[193,116,66,162,231,180,180,249,174,17,109,188,28,195,95,85,233,90,196,200]},"announce":[],"urlList":[]}}